Coordinates
version=1
nRows=6
nColumns=63
inDegrees=yes

Units are S.I. units (second, meters, Newtons, ...)
If the header above contains a line with 'inDegrees', this indicates whether rotational values are in degrees (yes) or radians (no).

endheader
time	pelvis_tilt	pelvis_list	pelvis_rotation	pelvis_tx	pelvis_ty	pelvis_tz	hip_flexion_r	hip_adduction_r	hip_rotation_r	knee_angle_r	knee_angle_r_beta	ankle_angle_r	subtalar_angle_r	mtp_angle_r	hip_flexion_l	hip_adduction_l	hip_rotation_l	knee_angle_l	knee_angle_l_beta	ankle_angle_l	subtalar_angle_l	mtp_angle_l	L5_S1_Flex_Ext	L5_S1_Lat_Bending	L5_S1_axial_rotation	L4_L5_Flex_Ext	L4_L5_Lat_Bending	L4_L5_axial_rotation	L3_L4_Flex_Ext	L3_L4_Lat_Bending	L3_L4_axial_rotation	L2_L3_Flex_Ext	L2_L3_Lat_Bending	L2_L3_axial_rotation	L1_L2_Flex_Ext	L1_L2_Lat_Bending	L1_L2_axial_rotation	L1_T12_Flex_Ext	L1_T12_Lat_Bending	L1_T12_axial_rotation	Abs_r3	Abs_r2	Abs_r1	Abs_t1	Abs_t2	neck_flexion	neck_bending	neck_rotation	arm_flex_r	arm_add_r	arm_rot_r	elbow_flex_r	pro_sup_r	wrist_flex_r	wrist_dev_r	arm_flex_l	arm_add_l	arm_rot_l	elbow_flex_l	pro_sup_l	wrist_flex_l	wrist_dev_l
3.439024	-5.985327	-7.527583	82.598986	0.183045	0.764890	0.722968	11.412014	-5.944335	12.417749	14.743283	0.257319	35.086863	-3.331753	0.000000	7.258499	3.313692	-10.891928	8.162001	0.142454	34.554572	13.549634	0.000000	0.052487	0.557284	-0.809312	0.097473	0.741187	-0.859894	0.086230	1.354979	-0.859894	0.059987	1.354979	-0.708148	0.048739	1.136413	-0.657566	0.029991	0.863232	-0.606984	0.374906	6.304104	-4.501149	0.000000	0.000000	25.396699	2.780606	18.781428	-107.475786	-71.384192	-123.788225	15.860032	27.425570	-8.342118	2.703274	-108.412720	-68.412088	-82.007356	11.493157	46.588279	-1.984313	-11.821811
3.463415	-6.425784	-7.692441	83.001332	0.185782	0.766803	0.720396	10.152410	-6.399248	13.083599	12.508806	0.218320	33.357193	-4.908434	0.000000	6.530575	3.740413	-9.085207	7.094433	0.123821	32.467744	12.777554	0.000000	0.090093	0.561624	-0.848047	0.167313	0.746960	-0.901050	0.148014	1.365533	-0.901050	0.102968	1.365533	-0.742041	0.083661	1.145264	-0.689038	0.051479	0.869956	-0.636035	0.643528	6.353204	-4.716585	0.000000	0.000000	25.787241	3.289564	18.765914	-114.628057	-70.678723	-124.396717	13.400963	26.977292	-6.101538	0.775261	-116.810177	-67.195711	-89.277787	12.181889	53.095811	-0.598571	-12.114461
3.487805	-6.901836	-7.867258	83.473308	0.188346	0.768538	0.718030	8.934688	-6.898472	13.768802	10.374266	0.181065	31.693461	-6.584296	0.000000	5.950077	4.142144	-7.325625	6.307627	0.110089	30.508863	12.144122	0.000000	0.132449	0.559344	-0.851738	0.245972	0.743927	-0.904972	0.217601	1.359988	-0.904972	0.151376	1.359988	-0.745271	0.122993	1.140613	-0.692037	0.075682	0.866423	-0.638804	0.946073	6.327406	-4.737112	0.000000	0.000000	26.058274	3.694615	18.549172	-119.971559	-69.310756	-122.784298	11.461578	27.453940	-3.969307	-1.485764	-123.947891	-65.822369	-98.427201	13.643477	59.047857	0.682556	-11.993883
3.512195	-7.433880	-8.052284	83.982328	0.190786	0.770073	0.715881	7.793998	-7.452299	14.456387	8.390592	0.146443	30.130597	-8.282385	0.000000	5.511329	4.534545	-5.678333	5.777021	0.100828	28.729959	11.687395	0.000000	0.179198	0.546960	-0.808982	0.332789	0.727457	-0.859544	0.294405	1.329879	-0.859544	0.204806	1.329879	-0.707860	0.166403	1.115361	-0.657298	0.102394	0.847241	-0.606737	1.279995	6.187321	-4.499318	0.000000	0.000000	26.337561	3.866703	18.016628	-123.379262	-67.452352	-120.293535	10.075986	28.636777	-1.690812	-3.512631	-130.060153	-64.439277	-109.670456	15.580845	63.964848	1.894176	-11.518921
3.536585	-8.026443	-8.227587	84.482894	0.193165	0.771408	0.714011	6.754077	-8.047600	15.131627	6.611534	0.115393	28.731102	-9.900978	0.000000	5.188662	4.915139	-4.240115	5.482347	0.095685	27.165492	11.461458	0.000000	0.225720	0.521161	-0.709466	0.419185	0.693143	-0.753808	0.370835	1.267150	-0.753808	0.257975	1.267150	-0.620783	0.209604	1.062750	-0.576441	0.128976	0.807278	-0.532100	1.612295	5.895472	-3.945838	0.000000	0.000000	26.669513	3.835413	17.105509	-125.054266	-65.395514	-118.684977	9.191299	30.465579	0.546922	-4.804236	-134.236175	-63.296826	-123.046798	17.965665	67.646902	2.757006	-9.948239
3.560976	-8.662423	-8.378918	84.954741	0.195477	0.772551	0.712448	5.824612	-8.675533	15.800935	5.050998	0.088157	27.534323	-11.404065	0.000000	4.965883	5.282178	-3.019262	5.393949	0.094142	25.851646	11.447971	0.000000	0.268763	0.481670	-0.536550	0.499120	0.640620	-0.570084	0.441551	1.171131	-0.570084	0.307170	1.171131	-0.469481	0.249574	0.982220	-0.435947	0.153571	0.746106	-0.402412	1.919749	5.448742	-2.984129	0.000000	0.000000	27.033586	3.478130	15.642625	-125.322554	-63.173197	-118.414645	8.711198	33.123608	2.570303	-5.316536	-136.197865	-62.574074	-138.401969	20.678139	69.580143	3.244114	-7.703481
